<svg viewBox="0 0 64 59.54" xmlns="http://www.w3.org/2000/svg" xmlns:xlink="http://www.w3.org/1999/xlink"><linearGradient id="a" gradientUnits="userSpaceOnUse" x1="21.94" x2="67.56" y1="-3.77" y2="55.17"><stop offset="0" stop-color="#056f3c"/><stop offset=".36"/><stop offset=".42" stop-color="#112017"/><stop offset=".53" stop-color="#2a503a"/><stop offset=".63" stop-color="#3f7857"/><stop offset=".73" stop-color="#4f986d"/><stop offset=".83" stop-color="#5bae7d"/><stop offset=".92" stop-color="#62bb87"/><stop offset="1" stop-color="#64c08a"/></linearGradient><linearGradient id="b" gradientUnits="userSpaceOnUse" x2="33.26" y1="1.72" y2="1.72"><stop offset="0" stop-color="#056f3c"/><stop offset=".5" stop-color="#00a550"/><stop offset="1" stop-color="#64c08a"/></linearGradient><linearGradient id="c" gradientUnits="userSpaceOnUse" x1="21.57" x2="19.98" y1="47.12" y2="17.43"><stop offset="0" stop-color="#64c08a"/><stop offset=".5" stop-color="#00a550"/><stop offset="1" stop-color="#7ebc48"/></linearGradient><linearGradient id="d" x1="0" x2="33.26" xlink:href="#b" y1="29.47" y2="29.47"/><radialGradient id="e" cx="1087.01" cy="-3992.2" gradientTransform="matrix(.91 0 0 .81 -965.66 3290.36)" gradientUnits="userSpaceOnUse" r="50.76"><stop offset=".1" stop-color="#fff"/><stop offset=".6" stop-color="#7ebc47"/></radialGradient><path d="m50.81 32.37c.06 1.7-1.45 4.24-2.3 3.75-2.14-1.24-5.78.56-6.58-2.25-1.33-4.63-3.46-8.18-9.28-9.15-2.3-.39-2.48-2.92-4.19-4.66a8.79 8.79 0 0 0 1 6.7 13.67 13.67 0 0 0 3.3 3.54c9.85 7.75 10.91 19.44 2.54 29.24-.5-1.06-2.89-2.17-6.2-3.52 3-5.61 5.71-17.61 1.44-23.35-1-1.38-6.14-7.31-7.44-9.1a13.79 13.79 0 0 1 -2.25-9.34c.4-4.44 2.41-9 6.58-11.29a12.3 12.3 0 0 1 6.37-1.57 19.82 19.82 0 0 1 7.33 2l.22.09c1.37.63 2.69 1.35 4 2.11l18.65-5.57-16.24 9.89c-.78 2.76-1.42 4.52-.76 7.05 1 3.9 2.19 7.75 3.22 11.64a16.9 16.9 0 0 1 .59 3.79z" fill="url(#a)"/><path d="m33.26 1.39s-1.06.2-2.74.66c1.04-.28 1.95-.41 2.74-.66z" fill="url(#b)"/><path d="m23.21 23.8c-4-5.42-3.11-15 2.24-19.17a13.5 13.5 0 0 1 4.73-2.49c-6.18 1.73-19.63 6.75-21.45 17.86-2.38 14.47 26.13 18.78 19.33 37.73a12.86 12.86 0 0 0 1.15-1.82c3-5.55 5.71-17.43 1.43-23.11-1.02-1.36-6.13-7.23-7.43-9z" fill="url(#c)"/><path d="m8.73 20c1.82-11.11 15.27-16.13 21.45-17.86l.34-.09c1.68-.46 2.74-.66 2.74-.66a22.19 22.19 0 0 0 -11.26 1.61 51.36 51.36 0 0 0 -11.07 5.91 27.79 27.79 0 0 0 -8 8.67 19.39 19.39 0 0 0 -1.91 5 26.41 26.41 0 0 0 -.22 13.52c4.32 15.41 25 17.73 27.26 21.63 6.8-18.95-21.71-23.26-19.33-37.73z" fill="url(#d)"/><path d="m8.73 20c1.82-11.11 15.27-16.13 21.45-17.86l.34-.09c1.68-.46 2.74-.66 2.74-.66a24.19 24.19 0 0 0 -11 1.51c-9.66 3.77-19.73 10.39-21.55 20.62a26.62 26.62 0 0 0 .09 12.58c4.32 15.41 25 17.73 27.26 21.63 6.8-18.95-21.71-23.26-19.33-37.73z" fill="url(#e)"/></svg>