<?xml version="1.0" encoding="UTF-8" standalone="no"?>
<svg width="30px" height="16px" viewBox="0 0 30 16" version="1.1" xmlns="http://www.w3.org/2000/svg" xmlns:xlink="http://www.w3.org/1999/xlink">
    <!-- Generator: sketchtool 50.2 (55047) - http://www.bohemiancoding.com/sketch -->
    <title>AE07F0B3-C4C6-4918-92DB-10B9BBD24803</title>
    <desc>Created with sketchtool.</desc>
    <defs></defs>
    <g id="Mobile-Android" stroke="none" stroke-width="1" fill="none" fill-rule="evenodd">
        <g id="assets" transform="translate(-187.000000, -133.000000)">
            <g id="icons/light/mellow" transform="translate(186.000000, 125.000000)">
                <rect id="Background" x="0" y="0" width="32" height="32"></rect>
                <g id="iso" stroke-width="1" fill-rule="evenodd" transform="translate(1.333333, 8.000000)" fill="#FFFFFF">
                    <path d="M10.1988501,0.417087465 C8.98129966,1.20865431 8.27308484,3.65648152 7.81140896,6.16667281 C7.81174302,6.16460875 7.81185438,6.16269212 7.8122998,6.16062806 L7.81274522,6.15782684 C6.90709882,3.50845896 5.34991706,0.731561682 2.85279172,2.36954038 C0.936602956,3.62566805 0.428269524,7.68272456 0.0358561588,9.8212377 C0.0336290682,9.83332719 0.0317360412,9.84600641 0.0296203051,9.85824334 C0.0292862415,9.85868564 0.0292862415,9.85957023 0.0289521779,9.86015996 C0.0106900349,9.97294608 0.000668127183,10.0892706 0,10.207954 L0,10.2336073 C0.000222709061,10.2753308 0.00167031796,10.3173492 0.00423147216,10.3595149 C0.0624698916,11.303085 0.687168808,12.005455 1.39972645,11.9284951 C1.98266742,11.8655413 2.44322975,11.3004312 2.56004066,10.5806642 C2.76693737,9.45929011 2.95635143,8.33540968 3.2285019,7.2355608 C3.50532927,6.11919944 4.11644293,4.71873503 4.82398962,6.03206664 C5.87695806,7.98643618 6.27026226,10.5550109 6.92959243,12.6873318 L6.92959243,12.6858575 C7.00909957,13.4380598 7.4461661,14.067598 8.04169013,14.2126719 C8.78520433,14.3931296 9.4467616,13.6222034 9.62058602,12.0424607 C10.0196807,9.53595518 10.1399435,6.97799565 10.8312325,4.52721979 C11.8248489,1.00313295 13.0210193,6.88983082 13.5273484,8.89904537 C14.0281097,10.855479 14.394132,12.7952527 15.4721552,14.4597693 C16.1088804,15.4431462 16.9805637,15.9986731 17.8675025,16 L17.8727362,16 C18.47728,15.9994103 19.0887277,15.7412554 19.6373715,15.1854336 C20.5126181,14.3002469 21.0913276,12.1014338 21.5046756,9.81371862 C21.5114682,9.77612325 21.5074594,9.8212377 21.5074594,9.8212377 C22.4134399,12.4710479 23.9835388,15.2855405 26.4804414,13.6481516 C28.3996368,12.3902547 28.9066339,8.32214072 29.2997154,6.18657624 C29.300829,6.17935203 29.3018312,6.17198039 29.3031674,6.16534591 C29.3038355,6.16224982 29.3038355,6.15974347 29.304281,6.15723711 C29.3303379,5.99727249 29.339469,5.8297888 29.3292244,5.65788213 C29.2707632,4.71445947 28.646287,4.01194206 27.933284,4.08919686 C27.3502317,4.15215068 26.889892,4.71740813 26.7730811,5.43791235 C26.5665185,6.5582544 26.3772158,7.68198739 26.1043972,8.78198371 C25.8283493,9.89834507 25.2171243,11.2983672 24.5098003,9.98636246 C23.4566091,8.03066603 23.0788946,5.71700269 22.419453,3.58541889 L22.4188963,3.58748295 C22.3372734,2.63241311 21.7806121,2.05786738 20.9622677,2.14617965 C20.2114041,2.22756257 19.8081893,3.28937378 19.6662123,4.26891747 C19.3083188,6.51888983 19.1567653,8.51262394 18.684288,10.7395968 C18.4028951,12.062659 17.9038041,13.3317607 17.2020479,11.7857801 C16.7461624,10.7816151 16.4774639,9.69945818 16.1896125,8.61140393 L16.1822631,8.61228853 C15.6626828,6.53466514 15.2332998,4.44568943 14.3736428,2.52065902 C13.7233323,1.06343297 12.6828356,0.000147432826 11.4913421,0 C11.0755443,0 10.6412616,0.129593454 10.1988501,0.417087465" id="Fill-1"></path>
                    <g id="Group" opacity="0.473092831" style="mix-blend-mode: multiply;">
                        <path d="M16.1219918,8.47904904 C16.408641,9.5502167 16.676328,10.6155778 17.1301985,11.6042921 C17.8290236,13.1264854 18.3261409,11.8769107 18.6062476,10.5743511 C19.0767514,8.38135344 19.227672,6.41844125 19.5839597,4.20308827 C19.7254546,3.2386164 20.1269852,2.19314283 20.8747126,2.11315728 C21.7080466,2.02417154 22.2688144,2.61774852 22.3300254,3.5964465 C21.9024358,5.77637938 21.3625152,13.1443406 19.5554611,14.9517817 C18.2056041,16.3034069 16.4749529,15.8673332 15.4074204,14.2372829 C14.3341216,12.5982323 13.9695172,10.6884503 13.4708474,8.76197434 C12.9666332,6.78367472 11.775459,0.987552998 10.7861035,4.45741619 C10.097702,6.87062816 9.97783052,9.38893912 9.58040281,11.856878 C9.40730442,13.4124591 8.74851034,14.1716686 8.00810165,13.9938423 C7.27212853,13.8167418 6.7785597,12.9048194 6.90785677,11.9394766 C7.3552956,9.6601061 7.79064749,1.93141153 10.1562516,0.410669915 C11.8594023,-0.683724037 13.4399093,0.546253408 14.3136071,2.4818747 C15.1696734,4.37699515 15.5971522,6.434119 16.1146731,8.47977486" id="Fill-1"></path>
                        <path d="M27.8166124,4.02598778 C27.2358845,4.08811811 26.7774676,4.64482335 26.6613664,5.35409631 C26.6353074,5.51145446 26.6259926,5.67679664 26.636638,5.8454776 C26.6944114,6.77438421 27.3167229,7.46594712 28.0263043,7.3903165 C28.5990482,7.32920231 29.053584,6.78643285 29.1773366,6.09109566 C29.1784454,6.08427294 29.1795543,6.07686956 29.1807741,6.070192 C29.1814395,6.06728871 29.1814395,6.06482092 29.181883,6.06235312 C29.2078311,5.90470465 29.2169241,5.73994313 29.2067223,5.57068151 C29.1485053,4.64192007 28.5266374,3.95006683 27.8166124,4.02598778" id="Fill-4"></path>
                        <path d="M1.18440995,8.38062762 C0.614105639,8.44159664 0.161898561,8.97957568 0.035706395,9.67012244 C0.033599496,9.68188075 0.0316034863,9.69436489 0.0294965872,9.70626836 C0.0291639189,9.70699418 0.0291639189,9.70772 0.0288312507,9.70830066 C0.00299401449,9.86623946 -0.00632069726,10.0311462 0.00421379817,10.1999723 C0.0622089678,11.129024 0.684298645,11.8207321 1.39388008,11.7449563 C1.97438622,11.6829712 2.43302489,11.1264111 2.54934789,10.4177188 C2.5755178,10.25978 2.58472162,10.0947281 2.57385446,9.92575684 C2.51608107,8.99670507 1.89376961,8.30485183 1.18440995,8.38062762" id="Fill-7"></path>
                        <path d="M28.0263043,7.3903165 C27.3167229,7.46594712 26.6944114,6.77438421 26.636638,5.8454776 C26.6259926,5.67679664 26.6353074,5.51145446 26.6613664,5.35409631 C26.4555556,6.45720013 26.2670436,7.56378788 25.9953645,8.64685902 C25.7204696,9.74589823 25.1117975,11.1243788 24.407317,9.8327065 C23.3585248,7.90710154 22.9824988,5.62874724 22.3258116,3.53025156 L22.3241483,3.53663879 C22.3258116,3.55667147 22.3286947,3.57597833 22.3300254,3.5964465 C22.1120168,4.70753435 21.8645116,7.16603759 21.4353695,9.54949087 L21.4176272,9.67012244 C22.3197127,12.2791611 23.8833645,15.0503483 26.369949,13.438008 C28.2809064,12.1994659 28.7858969,8.19394628 29.1773366,6.09109566 C29.053584,6.78643285 28.5990482,7.32920231 28.0263043,7.3903165" id="Fill-10"></path>
                        <path d="M6.90785677,11.9394766 C7.12619805,10.8275177 7.34154531,8.41837035 7.77966943,6.06583707 L7.78011299,6.06293378 C6.87824929,3.45447577 5.32757156,0.720160286 2.84087619,2.33308126 C0.932580069,3.56973626 0.426480731,7.56436854 0.035706395,9.67012244 C0.161898561,8.97957568 0.614105639,8.44159664 1.18440995,8.38062762 C1.89376961,8.30485183 2.51608107,8.99670507 2.57385446,9.92575684 C2.58472162,10.0947281 2.5755178,10.25978 2.54934789,10.4177188 C2.75538045,9.31374399 2.94400336,8.20715623 3.21490623,7.12423026 C3.49068823,6.02475556 4.09936029,4.64598467 4.80372992,5.93925376 C5.85241121,7.86340708 6.24407267,10.3926054 6.90053807,12.491972 L6.90064896,12.4905204 C6.88179775,12.3121134 6.88268487,12.1268837 6.90785677,11.9394766" id="Fill-13"></path>
                    </g>
                </g>
            </g>
        </g>
    </g>
</svg>